<svg width="1236" height="295" viewBox="0 0 1236 295" fill="none" xmlns="http://www.w3.org/2000/svg">
<path d="M69.9048 243.637C69.9048 243.637 124.295 293.747 139.885 294.537C155.475 295.327 257.405 230.857 271.105 113.257C271.105 113.257 219.305 164.507 218.365 166.747C217.425 168.987 183.965 235.347 139.055 253.487L69.9048 243.637Z" fill="#51C1B5"/>
<path d="M96.075 174.457L139.935 214.407L282.255 71.0671C282.255 71.0671 286.645 64.2771 284.105 56.8971C281.565 49.5171 270.705 43.0271 270.705 43.0271C270.705 43.0271 262.675 41.3171 255.705 46.0971C248.735 50.8771 139.005 162.577 139.005 162.577L96.0649 174.467L96.075 174.457Z" fill="#51C1B5"/>
<path d="M183.485 1.49707C183.485 1.49707 84.695 -6.23293 62.185 13.4371C62.185 13.4371 47.225 24.7771 44.085 55.9471C44.085 55.9471 84.765 36.5171 125.035 38.8271C165.305 41.1371 183.495 1.49707 183.495 1.49707H183.485Z" fill="#51C1B5"/>
<path d="M86.7548 3.96703C86.7548 3.96703 38.7448 11.197 6.33475 35.447C-3.57525 42.857 -2.18523 84.447 12.8248 97.437C21.4548 104.897 96.0648 174.457 96.0648 174.457C96.0648 174.457 114.915 176.817 128.145 171.777L139.005 162.567C139.005 162.567 45.5847 78.867 44.6447 67.987C43.7047 57.107 50.7848 17.097 86.7448 3.95703L86.7548 3.96703Z" fill="#51C1B5"/>
<path d="M159.125 97.5171V54.8571C159.125 54.8571 163.615 37.9371 180.455 40.2171C197.295 42.4971 210.995 47.3771 219.185 43.1271C227.375 38.8771 231.855 27.8971 223.475 13.2571C215.095 -1.38288 170.575 -0.322896 160.545 5.5871C150.515 11.4971 125.945 23.4171 122.405 48.6871V108.037C122.405 108.037 129.765 124.097 140.155 122.997C150.545 121.897 154.875 119.617 158.965 109.847L159.125 97.5271V97.5171Z" fill="#51C1B5"/>
<path d="M139.055 253.487C139.055 253.487 84.3448 217.597 66.7148 175.007C66.7148 175.007 57.0348 153.437 38.4548 164.777C38.4548 164.777 22.5548 172.967 31.2148 188.237C39.8748 203.507 58.6448 233.897 70.2748 243.967C70.2748 243.967 99.8548 269.627 139.055 253.487Z" fill="#51C1B5"/>
<path d="M524.4 93H475.4V219H457.4V93H408.4V77H524.4V93ZM591.041 130C582.241 130.133 574.441 132.4 567.641 136.8C560.974 141.067 556.241 147 553.441 154.6V219H535.841V114.6H552.241V138.8C555.841 131.6 560.574 125.8 566.441 121.4C572.441 116.867 578.707 114.333 585.241 113.8C586.574 113.8 587.707 113.8 588.641 113.8C589.574 113.8 590.374 113.867 591.041 114V130ZM617.497 177.2V114.6H635.097V173.8C635.097 184.467 636.964 192.467 640.697 197.8C644.43 203.133 649.964 205.8 657.297 205.8C662.097 205.8 666.697 204.8 671.097 202.8C675.63 200.667 679.697 197.667 683.297 193.8C686.897 189.933 689.697 185.333 691.697 180V114.6H709.297V199C709.297 201.133 709.697 202.733 710.497 203.8C711.43 204.733 712.897 205.267 714.897 205.4V219C712.897 219.267 711.297 219.4 710.097 219.4C709.03 219.533 707.964 219.6 706.897 219.6C703.564 219.6 700.697 218.6 698.297 216.6C695.897 214.467 694.63 211.867 694.497 208.8L694.097 196.6C689.564 204.333 683.43 210.333 675.697 214.6C668.097 218.867 659.764 221 650.697 221C639.764 221 631.497 217.333 625.897 210C620.297 202.533 617.497 191.6 617.497 177.2ZM784.414 221C775.747 221 767.614 219.6 760.014 216.8C752.414 213.867 745.881 209.533 740.414 203.8L747.214 191.4C753.214 197 759.214 201 765.214 203.4C771.214 205.8 777.347 207 783.614 207C790.814 207 796.681 205.667 801.214 203C805.747 200.2 808.014 196.133 808.014 190.8C808.014 186.933 806.814 184.067 804.414 182.2C802.147 180.333 798.881 178.8 794.614 177.6C790.347 176.267 785.281 174.8 779.414 173.2C772.214 171.067 766.147 168.8 761.214 166.4C756.281 164 752.547 161 750.014 157.4C747.481 153.8 746.214 149.267 746.214 143.8C746.214 137.133 747.947 131.533 751.414 127C754.881 122.333 759.614 118.8 765.614 116.4C771.747 114 778.681 112.8 786.414 112.8C794.147 112.8 801.147 114 807.414 116.4C813.681 118.8 819.081 122.333 823.614 127L815.614 139.2C811.481 134.933 806.947 131.8 802.014 129.8C797.081 127.667 791.547 126.6 785.414 126.6C781.814 126.6 778.281 127.067 774.814 128C771.347 128.8 768.481 130.333 766.214 132.6C763.947 134.733 762.814 137.8 762.814 141.8C762.814 145.133 763.681 147.8 765.414 149.8C767.281 151.667 769.947 153.267 773.414 154.6C777.014 155.933 781.347 157.4 786.414 159C794.281 161.267 801.081 163.533 806.814 165.8C812.681 168.067 817.214 171 820.414 174.6C823.614 178.2 825.214 183.2 825.214 189.6C825.214 199.467 821.481 207.2 814.014 212.8C806.547 218.267 796.681 221 784.414 221ZM910.27 213.8C908.804 214.467 906.804 215.333 904.27 216.4C901.737 217.467 898.804 218.4 895.47 219.2C892.137 220 888.604 220.4 884.87 220.4C880.604 220.4 876.67 219.667 873.07 218.2C869.47 216.6 866.604 214.2 864.47 211C862.337 207.667 861.27 203.533 861.27 198.6V128.4H847.07V114.6H861.27V79.8H878.87V114.6H902.27V128.4H878.87V193.2C879.137 196.933 880.404 199.733 882.67 201.6C884.937 203.333 887.604 204.2 890.67 204.2C894.137 204.2 897.337 203.6 900.27 202.4C903.204 201.2 905.137 200.333 906.07 199.8L910.27 213.8Z" fill="white"/>
<path d="M928.383 188.8C928.383 182.133 930.249 176.4 933.983 171.6C937.849 166.667 943.116 162.867 949.783 160.2C956.449 157.533 964.183 156.2 972.983 156.2C977.649 156.2 982.583 156.6 987.783 157.4C992.983 158.067 997.583 159.133 1001.58 160.6V153C1001.58 145 999.183 138.733 994.383 134.2C989.583 129.533 982.783 127.2 973.983 127.2C968.249 127.2 962.716 128.267 957.383 130.4C952.183 132.4 946.649 135.333 940.783 139.2L934.383 126.8C941.183 122.133 947.983 118.667 954.783 116.4C961.583 114 968.649 112.8 975.983 112.8C989.316 112.8 999.849 116.533 1007.58 124C1015.32 131.333 1019.18 141.6 1019.18 154.8V199C1019.18 201.133 1019.58 202.733 1020.38 203.8C1021.32 204.733 1022.78 205.267 1024.78 205.4V219C1023.05 219.267 1021.52 219.467 1020.18 219.6C1018.98 219.733 1017.98 219.8 1017.18 219.8C1013.05 219.8 1009.92 218.667 1007.78 216.4C1005.78 214.133 1004.65 211.733 1004.38 209.2L1003.98 202.6C999.449 208.467 993.516 213 986.183 216.2C978.849 219.4 971.583 221 964.383 221C957.449 221 951.249 219.6 945.783 216.8C940.316 213.867 936.049 210 932.983 205.2C929.916 200.267 928.383 194.8 928.383 188.8ZM996.383 196.2C997.983 194.333 999.249 192.467 1000.18 190.6C1001.12 188.6 1001.58 186.933 1001.58 185.6V172.6C997.449 171 993.116 169.8 988.583 169C984.049 168.067 979.583 167.6 975.183 167.6C966.249 167.6 958.983 169.4 953.383 173C947.916 176.467 945.183 181.267 945.183 187.4C945.183 190.733 946.049 194 947.783 197.2C949.649 200.267 952.316 202.8 955.783 204.8C959.383 206.8 963.783 207.8 968.983 207.8C974.449 207.8 979.649 206.733 984.583 204.6C989.516 202.333 993.449 199.533 996.383 196.2ZM1110.93 221C1102.79 221 1095.39 219 1088.73 215C1082.06 211 1076.79 205.8 1072.93 199.4V219H1057.33V73H1074.93V135.4C1079.33 128.6 1084.73 123.133 1091.13 119C1097.53 114.867 1104.99 112.8 1113.53 112.8C1120.73 112.8 1127.19 114.333 1132.93 117.4C1138.66 120.333 1143.53 124.4 1147.53 129.6C1151.66 134.667 1154.79 140.467 1156.93 147C1159.19 153.4 1160.33 160.133 1160.33 167.2C1160.33 174.533 1159.06 181.467 1156.53 188C1154.13 194.4 1150.66 200.133 1146.13 205.2C1141.59 210.133 1136.33 214 1130.33 216.8C1124.46 219.6 1117.99 221 1110.93 221ZM1106.53 205.8C1111.73 205.8 1116.53 204.733 1120.93 202.6C1125.33 200.467 1129.13 197.6 1132.33 194C1135.53 190.4 1137.99 186.267 1139.73 181.6C1141.46 176.933 1142.33 172.133 1142.33 167.2C1142.33 160.4 1140.86 154 1137.93 148C1135.13 142 1131.13 137.2 1125.93 133.6C1120.86 129.867 1114.93 128 1108.13 128C1103.19 128 1098.59 129.133 1094.33 131.4C1090.06 133.667 1086.26 136.667 1082.93 140.4C1079.73 144 1077.06 148 1074.93 152.4V182.6C1075.59 185.933 1076.99 189 1079.13 191.8C1081.26 194.6 1083.86 197.067 1086.93 199.2C1089.99 201.2 1093.19 202.8 1096.53 204C1099.99 205.2 1103.33 205.8 1106.53 205.8ZM1192.33 73H1209.93V192C1209.93 197.733 1210.73 201.267 1212.33 202.6C1213.93 203.933 1215.87 204.6 1218.13 204.6C1220.93 204.6 1223.6 204.333 1226.13 203.8C1228.67 203.133 1230.8 202.467 1232.53 201.8L1235.33 216.2C1232.4 217.4 1228.93 218.4 1224.93 219.2C1220.93 220 1217.4 220.4 1214.33 220.4C1207.53 220.4 1202.13 218.467 1198.13 214.6C1194.27 210.733 1192.33 205.333 1192.33 198.4V73Z" fill="#51C1B5"/>
</svg>
